<svg width="87" height="65" viewBox="0 0 87 65" fill="none" xmlns="http://www.w3.org/2000/svg">
<path d="M10.5696 62.45C10.5696 63.63 11.5196 64.58 12.6996 64.58H17.8696C19.0496 64.58 19.9996 63.63 19.9996 62.45V55.15H10.5596V62.45H10.5696Z" fill="#FCA24F"/>
<path d="M66.3801 62.45C66.3801 63.63 67.3301 64.58 68.5101 64.58H73.6801C74.8601 64.58 75.8101 63.63 75.8101 62.45V55.15H66.3701V62.45H66.3801Z" fill="#FCA24F"/>
<path d="M82.22 28.5H82.01C80.27 28.5 78.7 27.43 78.06 25.81L71.89 10.79C69.87 4.37 63.91 0 57.18 0H29.9C23.35 0 17.51 4.14 15.35 10.32C15.33 10.39 15.3 10.46 15.27 10.53L8.25 25.87C7.58 27.43 6.05 28.44 4.35 28.44C2 28.44 0.1 30.34 0.1 32.69L0 47.96C0 50.31 1.9 52.21 4.25 52.21L82.12 52.27C84.47 52.27 86.37 50.37 86.37 48.02L86.47 32.74C86.46 30.4 84.56 28.5 82.22 28.5ZM22.5 12.04C23.42 9.93 25.51 8.57 27.81 8.57L59.11 8.56C61.51 8.56 63.66 10.04 64.53 12.27L68.57 22.72L17.85 22.65L22.5 12.04ZM15.29 41.79C12.72 41.79 10.64 39.71 10.64 37.14C10.64 34.57 12.72 32.49 15.29 32.49C17.86 32.49 19.94 34.57 19.94 37.14C19.94 39.71 17.86 41.79 15.29 41.79ZM71.1 41.79C68.53 41.79 66.45 39.71 66.45 37.14C66.45 34.57 68.53 32.49 71.1 32.49C73.67 32.49 75.75 34.57 75.75 37.14C75.75 39.71 73.67 41.79 71.1 41.79Z" fill="#FCA24F"/>
</svg>
