<svg width="71" height="83" viewBox="0 0 71 83" fill="none" xmlns="http://www.w3.org/2000/svg">
<path d="M70.88 35.52L69.06 15.91C68.23 6.89 60.67 0 51.62 0H19.68C10.42 0 2.68 7.05 1.83 16.28L0.04 35.52C0.01 35.84 0 36.15 0 36.47V60.74C0 66.39 4.58 70.97 10.23 70.97H60.69C66.34 70.97 70.92 66.39 70.92 60.74V36.47C70.93 36.15 70.91 35.84 70.88 35.52ZM12.01 16.17C12.23 13.7 14.3 11.8 16.78 11.8H54.15C56.63 11.8 58.7 13.7 58.92 16.17L60.29 31.87H10.64L12.01 16.17ZM12.62 58.77C10.05 58.77 7.97 56.69 7.97 54.12C7.97 51.55 10.05 49.47 12.62 49.47C15.19 49.47 17.27 51.55 17.27 54.12C17.27 56.68 15.19 58.77 12.62 58.77ZM59.44 59.49C56.87 59.49 54.79 57.41 54.79 54.84C54.79 52.27 56.87 50.19 59.44 50.19C62.01 50.19 64.09 52.27 64.09 54.84C64.09 57.41 62.01 59.49 59.44 59.49Z" fill="#FCA24F"/>
<path d="M7.9502 80.15C7.9502 81.33 8.9002 82.28 10.0802 82.28H15.2502C16.4302 82.28 17.3802 81.33 17.3802 80.15V72.85H7.9502V80.15Z" fill="#FCA24F"/>
<path d="M54.7297 80.15C54.7297 81.33 55.6797 82.28 56.8597 82.28H62.0297C63.2097 82.28 64.1597 81.33 64.1597 80.15V72.85H54.7197V80.15H54.7297Z" fill="#FCA24F"/>
</svg>
