<svg width="67" height="84" viewBox="0 0 67 84" fill="none" xmlns="http://www.w3.org/2000/svg">
<path d="M50.75 0H15.95C7.14 0 0 7.14 0 15.95V55.95C0 64.76 7.14 71.9 15.95 71.9H50.75C59.56 71.9 66.7 64.76 66.7 55.95V15.95C66.69 7.14 59.55 0 50.75 0ZM13.04 60.42C10.47 60.42 8.39 58.34 8.39 55.77C8.39 53.2 10.47 51.12 13.04 51.12C15.61 51.12 17.69 53.2 17.69 55.77C17.69 58.33 15.61 60.42 13.04 60.42ZM30.44 32.22C30.44 34.4 28.67 36.17 26.49 36.17H10.91C8.73 36.17 6.96 34.4 6.96 32.22V22.33C6.96 20.18 8.7 18.44 10.85 18.44H26.55C28.7 18.44 30.44 20.18 30.44 22.33V32.22ZM28.7 8.08C28.7 5.51 30.78 3.43 33.35 3.43C35.92 3.43 38 5.51 38 8.08C38 10.65 35.92 12.73 33.35 12.73C30.78 12.73 28.7 10.65 28.7 8.08ZM53.65 60.42C51.08 60.42 49 58.34 49 55.77C49 53.2 51.08 51.12 53.65 51.12C56.22 51.12 58.3 53.2 58.3 55.77C58.3 58.33 56.22 60.42 53.65 60.42ZM59.7 32.22C59.7 34.4 57.93 36.17 55.75 36.17H40.17C37.99 36.17 36.22 34.4 36.22 32.22V22.33C36.22 20.18 37.96 18.44 40.11 18.44H55.81C57.96 18.44 59.7 20.18 59.7 22.33V32.22Z" fill="#FCA24F"/>
<path d="M49.3402 77.54H18.7002V83.92H49.3402V77.54Z" fill="#FCA24F"/>
</svg>
